# xmcd
#
# Track frame offsets:
#	150
#	14051
#	27632
#	41046
#	51500
#	63452
#	72914
#	86339
#	98907
#	107440
#	116249
#	127927
#	139424
#	148856
#	159492
#	171896
#	184849
#	193521
#	204614
#	211556
#	220120
#	232206
#	236965
#	250242
#	262308
#	268217
#	284896
#
# Disc length: 3865 seconds
#
# Revision: 0
# Processed by: cddbd v1.5.2PL0 Copyright (c) Steve Scherf et al.
# Submitted via: EasyCDDAExtractor 15.3.0.1
#
DISCID=ba0f171b
DTITLE=Various Artist - Uncle Henry's Original Kentucky Mountaineers Vol. 2
DYEAR=1900
DGENRE=
TTITLE0=Grandpa Nerit - Don't Go Out Tonight Darling
TTITLE1=Fay Billy - I Just Don't Care Anymore
TTITLE2=Jones Casey - Those Gone And Left Me Blues
TTITLE3=Jones Casey - Train Whistle Blues (Instr.)
TTITLE4=Sally and Billy - Love That We Once Knew
TTITLE5=Jones Casey - Casey Jones (Instr.)
TTITLE6=Karl and Harty - Would You Care If Jesus Left You
TTITLE7=Jones Casey - Swing The Ladies Up And Down
TTITLE8=Jones Casey - Gotta Get Rid Of My Worried Mind (Instr.)
TTITLE9=Dale Jimmy - You Can't Break My Heart
TTITLE10=Coonhunter - All Alone In This World
TTITLE11=Coonhunter - Blue Eyed Elaine
TTITLE12=Jones Casey - Ben Dewberry's Final Run (Instr.)
TTITLE13=Coonhunter - Blue Eyes Crying In The Rain
TTITLE14=Coonhunter - No Vacancy
TTITLE15=Warren Sally - Do You Wonder Why
TTITLE16=Jones Casey - Irish Washerwoman (Instr.)
TTITLE17=Dale Jimmy - It's A Dirty Dirty Shame
TTITLE18=Jones Casey - Fire On The Mountain (Instr.)
TTITLE19=Warren Sally - You Walked Away With My Heart
TTITLE20=Dale Jimmy - I'm Thinking Of You While I Cry
TTITLE21=Jones Casey - Ragtime Annie (Instr.)
TTITLE22=Coonhunter - Trail To Mexico
TTITLE23=Warren Sally - You Only Want Me When You're Lonely
TTITLE24=Jones Casey - Fisher's Hornpipe (Instr.)
TTITLE25=Dale Jimmy - Have I Told You Lately That I Love  You
TTITLE26=Jones Casey - Johnson's Old Gray Mule
EXTD=
EXTT0=
EXTT1=
EXTT2=
EXTT3=
EXTT4=
EXTT5=
EXTT6=
EXTT7=
EXTT8=
EXTT9=
EXTT10=
EXTT11=
EXTT12=
EXTT13=
EXTT14=
EXTT15=
EXTT16=
EXTT17=
EXTT18=
EXTT19=
EXTT20=
EXTT21=
EXTT22=
EXTT23=
EXTT24=
EXTT25=
EXTT26=
PLAYORDER=
